<?xml version="1.0" standalone="no"?>
<!DOCTYPE svg PUBLIC "-//W3C//DTD SVG 20010904//EN"
 "http://www.w3.org/TR/2001/REC-SVG-20010904/DTD/svg10.dtd">
<svg version="1.0" xmlns="http://www.w3.org/2000/svg"
 width="500.000000pt" height="500.000000pt" viewBox="0 0 500.000000 500.000000"
 preserveAspectRatio="xMidYMid meet">
<metadata>
Created by potrace 1.14, written by Peter Selinger 2001-2017
</metadata>
<g transform="translate(0.000000,500.000000) scale(0.100000,-0.100000)"
fill="#000000" stroke="none">
<path d="M1165 3929 c-60 -14 -126 -68 -160 -130 -25 -45 -30 -65 -30 -124 0
-59 5 -79 30 -124 98 -178 329 -184 450 -13 25 37 30 55 33 117 5 92 -9 136
-62 193 -66 72 -168 104 -261 81z"/>
<path d="M2667 3886 c-78 -28 -139 -92 -163 -173 -18 -59 -18 -87 1 -149 31
-106 136 -184 245 -183 104 0 185 49 235 141 92 169 -38 379 -234 378 -25 -1
-63 -7 -84 -14z"/>
<path d="M3340 2989 c-314 -13 -450 -25 -1090 -93 -313 -34 -634 -54 -980 -62
l-285 -7 3 -36 c2 -20 6 -115 10 -211 l7 -175 200 -3 c242 -4 599 12 876 38
112 11 207 20 210 20 12 0 18 -27 29 -132 53 -504 87 -673 166 -833 96 -197
261 -335 479 -401 90 -28 360 -25 466 4 283 77 485 290 566 597 24 91 26 117
26 295 0 107 -7 321 -17 475 -9 154 -20 336 -24 405 l-7 125 -225 1 c-124 1
-308 -2 -410 -7z m250 -430 c0 -4 6 -6 13 -4 9 4 13 -17 14 -85 2 -58 -1 -89
-7 -85 -6 3 -10 1 -10 -4 0 -6 5 -11 11 -11 5 0 7 -4 4 -10 -3 -5 -1 -10 4
-10 17 0 13 -83 -5 -119 -13 -26 -14 -35 -4 -44 10 -9 12 -8 7 5 -3 9 0 21 7
27 10 8 12 -4 13 -57 0 -37 -2 -59 -4 -49 -6 23 -20 22 -35 -3 -15 -24 -34
-26 -46 -4 -8 15 -12 15 -41 -1 -32 -16 -32 -16 -22 4 12 21 5 51 -11 51 -5 0
-8 -7 -6 -16 5 -26 -22 -29 -29 -4 -3 12 -9 17 -12 11 -11 -17 -50 -2 -44 17
4 14 3 15 -5 2 -6 -8 -8 -18 -5 -23 3 -5 -1 -13 -8 -18 -11 -6 -10 -9 3 -14
10 -4 14 -13 11 -21 -3 -8 2 -23 11 -33 17 -19 12 -31 -12 -31 -11 0 -12 3 -3
14 9 10 9 16 1 21 -6 4 -14 4 -17 1 -3 -3 -14 6 -25 19 -20 26 -38 25 -38 -2
0 -11 6 -14 21 -10 17 4 18 3 8 -9 -9 -11 -15 -12 -26 -3 -7 7 -17 8 -21 4 -4
-4 -1 -10 6 -12 6 -3 9 -9 6 -15 -4 -6 1 -8 15 -3 12 4 21 2 21 -4 0 -11 -12
-15 -42 -12 -13 2 -16 -3 -11 -16 4 -13 -2 -10 -22 10 -31 31 -45 34 -45 11 0
-8 5 -12 10 -9 6 3 17 -1 26 -9 14 -15 14 -17 0 -32 -9 -8 -16 -12 -16 -8 0 4
-9 -1 -20 -11 -26 -23 -59 -27 -85 -9 -24 17 -38 18 -33 2 5 -15 -9 -31 -34
-41 -20 -7 -25 8 -5 17 8 3 6 9 -7 20 -11 9 -16 19 -11 23 4 5 10 2 12 -4 6
-18 23 -16 23 2 0 8 -8 15 -18 15 -27 0 -32 9 -22 36 6 14 6 26 0 29 -6 4 -10
0 -10 -7 -1 -8 -6 -6 -15 6 -8 11 -15 15 -15 9 0 -7 4 -14 9 -18 22 -13 -17
-136 -42 -134 -9 0 -9 2 1 6 23 9 12 20 -28 31 -35 9 -42 8 -50 -8 -7 -13 -7
-21 0 -25 6 -4 8 -15 5 -25 -4 -13 0 -20 15 -25 11 -3 20 -11 20 -16 0 -14 -9
-11 -32 11 -12 11 -25 20 -30 20 -10 0 -11 -17 0 -23 4 -2 1 -2 -6 0 -26 6
-45 -26 -39 -65 5 -35 4 -34 -20 18 -14 31 -22 65 -20 79 3 15 -1 30 -9 36 -7
5 -15 36 -18 67 -2 32 -7 62 -11 68 -4 6 1 18 11 25 18 13 18 14 2 15 -13 0
-18 8 -18 30 0 34 13 39 30 13 7 -12 13 -14 16 -7 3 7 14 9 26 6 15 -3 19 -1
16 9 -3 9 7 19 25 27 28 11 29 14 15 28 -9 9 -32 16 -51 17 -28 1 -42 -6 -60
-27 l-24 -28 -7 84 c-4 54 -3 84 4 86 5 2 10 10 10 18 0 8 -6 11 -15 8 -24
-10 -20 59 5 81 11 10 20 23 20 28 0 6 -8 3 -18 -6 -27 -24 -32 -21 -32 18 0
29 4 35 22 35 17 0 19 -3 10 -12 -19 -19 -14 -29 8 -16 11 7 20 18 20 25 0 8
14 14 33 14 17 1 46 3 62 4 42 2 183 15 222 20 30 3 31 2 21 -15 -17 -26 -2
-37 21 -16 17 16 20 16 35 1 20 -21 21 -7 1 15 -15 16 -9 18 89 25 58 4 136 5
175 4 38 -2 72 -1 75 2 10 9 106 8 106 -2z m-169 -461 c-9 -15 -16 -26 -17
-25 -1 1 -4 14 -8 28 -5 23 -3 27 17 25 22 -1 23 -2 8 -28z m217 -38 c0 -16
-3 -32 -9 -35 -5 -3 -6 1 -3 10 5 11 2 14 -12 8 -16 -6 -16 -4 2 20 10 14 19
27 20 27 1 0 1 -13 2 -30z m-73 -15 c-32 -26 -39 -27 -29 -2 3 9 15 18 27 20
12 2 24 5 27 5 3 1 -8 -10 -25 -23z m30 -25 c3 -5 2 -10 -4 -10 -5 0 -13 5
-16 10 -3 6 -2 10 4 10 5 0 13 -4 16 -10z m-665 -125 c7 -14 17 -25 22 -25 5
0 6 -5 3 -11 -4 -6 -17 3 -31 22 -27 36 -28 39 -16 39 5 0 15 -11 22 -25z
m-34 -77 c4 -7 4 -10 -1 -6 -4 4 -15 2 -24 -5 -14 -11 -14 -10 -2 6 16 20 18
21 27 5z"/>
<path d="M3435 2530 c3 -5 11 -10 16 -10 6 0 7 5 4 10 -3 6 -11 10 -16 10 -6
0 -7 -4 -4 -10z"/>
<path d="M3540 2526 c0 -9 5 -16 10 -16 6 0 10 4 10 9 0 6 -4 13 -10 16 -5 3
-10 -1 -10 -9z"/>
<path d="M3472 2503 c-12 -14 -21 -28 -18 -31 9 -8 38 7 32 17 -4 5 -1 11 5
13 7 2 10 9 8 16 -2 6 -13 0 -27 -15z"/>
<path d="M2930 2506 c0 -9 5 -16 10 -16 6 0 10 4 10 9 0 6 -4 13 -10 16 -5 3
-10 -1 -10 -9z"/>
<path d="M2986 2508 c3 -5 10 -6 15 -3 13 9 11 12 -6 12 -8 0 -12 -4 -9 -9z"/>
<path d="M3513 2503 c-7 -3 -13 -12 -13 -21 0 -15 2 -15 17 1 18 18 16 27 -4
20z"/>
<path d="M3570 2481 c0 -6 5 -13 10 -16 6 -3 10 1 10 9 0 9 -4 16 -10 16 -5 0
-10 -4 -10 -9z"/>
<path d="M2985 2459 c-10 -15 3 -25 16 -12 7 7 7 13 1 17 -6 3 -14 1 -17 -5z"/>
<path d="M3154 2449 c-6 -10 -1 -12 39 -13 23 -2 40 12 20 15 -34 6 -54 5 -59
-2z"/>
<path d="M3320 2451 c0 -6 5 -13 10 -16 6 -3 10 1 10 9 0 9 -4 16 -10 16 -5 0
-10 -4 -10 -9z"/>
<path d="M2870 2439 c0 -5 5 -7 10 -4 6 3 10 8 10 11 0 2 -4 4 -10 4 -5 0 -10
-5 -10 -11z"/>
<path d="M3450 2440 c0 -5 7 -10 15 -10 8 0 15 5 15 10 0 6 -7 10 -15 10 -8 0
-15 -4 -15 -10z"/>
<path d="M3100 2430 c0 -5 5 -10 10 -10 6 0 10 5 10 10 0 6 -4 10 -10 10 -5 0
-10 -4 -10 -10z"/>
<path d="M2810 2409 c0 -5 5 -7 10 -4 6 3 10 1 10 -5 0 -6 5 -8 11 -4 8 4 7 9
-2 15 -19 12 -29 11 -29 -2z"/>
<path d="M3292 2400 c-13 -21 -6 -25 18 -10 10 6 12 12 5 19 -7 7 -14 4 -23
-9z"/>
<path d="M3520 2412 c0 -4 11 -9 25 -10 14 -1 25 3 25 8 0 6 -11 10 -25 10
-14 0 -25 -4 -25 -8z"/>
<path d="M3100 2390 c-8 -5 -11 -12 -7 -16 4 -4 13 -2 19 4 15 15 7 24 -12 12z"/>
<path d="M3140 2394 c0 -3 7 -12 15 -20 16 -17 18 -14 9 10 -6 15 -24 23 -24
10z"/>
<path d="M3575 2390 c-4 -6 -11 -8 -16 -5 -5 3 -19 -3 -31 -14 -12 -12 -30
-21 -40 -21 -22 0 -23 -13 -2 -30 13 -11 16 -10 20 7 3 11 21 26 39 33 19 7
36 19 39 27 6 15 0 17 -9 3z"/>
<path d="M2971 2373 c0 -12 -10 -27 -21 -33 -11 -6 -20 -17 -20 -25 0 -17 20
-31 29 -19 3 5 18 15 33 23 29 15 42 37 32 53 -4 6 -10 6 -17 -1 -16 -16 -25
-14 -30 7 -4 13 -5 12 -6 -5z"/>
<path d="M3203 2370 c-1 -11 2 -20 8 -20 5 0 9 9 9 20 0 11 -4 20 -8 20 -4 0
-8 -9 -9 -20z"/>
<path d="M3389 2363 c-13 -16 -12 -17 4 -4 16 13 21 21 13 21 -2 0 -10 -8 -17
-17z"/>
<path d="M3117 2344 c3 -8 -4 -18 -18 -23 -13 -5 -18 -10 -10 -10 11 -1 11 -4
1 -16 -7 -9 -10 -18 -7 -22 4 -3 14 8 24 26 10 17 24 31 31 31 19 0 10 23 -10
26 -11 1 -15 -3 -11 -12z"/>
<path d="M3535 2340 c-18 -20 -11 -25 19 -14 17 6 23 34 8 34 -5 0 -17 -9 -27
-20z"/>
<path d="M2855 2330 c-3 -5 3 -10 14 -10 12 0 21 5 21 10 0 6 -6 10 -14 10 -8
0 -18 -4 -21 -10z"/>
<path d="M3050 2330 c0 -5 5 -10 10 -10 6 0 10 5 10 10 0 6 -4 10 -10 10 -5 0
-10 -4 -10 -10z"/>
<path d="M3219 2323 c-13 -16 -12 -17 4 -4 16 13 21 21 13 21 -2 0 -10 -8 -17
-17z"/>
<path d="M3567 2319 c-10 -11 -16 -24 -12 -27 8 -9 38 24 34 37 -3 7 -12 3
-22 -10z"/>
<path d="M3380 2310 c19 -13 30 -13 30 0 0 6 -10 10 -22 10 -19 0 -20 -2 -8
-10z"/>
<path d="M3040 2300 c0 -5 5 -10 10 -10 6 0 10 5 10 10 0 6 -4 10 -10 10 -5 0
-10 -4 -10 -10z"/>
<path d="M3526 2302 c-4 -6 -13 -9 -20 -6 -8 3 -17 0 -21 -6 -10 -15 -5 -17
32 -10 24 4 30 8 24 19 -6 9 -11 10 -15 3z"/>
<path d="M3407 2283 c-14 -14 -6 -23 12 -14 10 6 22 7 26 3 5 -4 5 -1 1 6 -8
13 -29 16 -39 5z"/>
<path d="M3550 2261 c-15 -29 -13 -33 13 -25 31 9 31 11 14 29 -15 14 -17 14
-27 -4z"/>
<path d="M3007 2254 c3 -8 9 -14 14 -14 5 0 9 -7 9 -16 0 -14 3 -14 15 -4 22
18 19 27 -14 38 -25 9 -29 8 -24 -4z"/>
<path d="M3195 2261 c-3 -5 -2 -12 3 -15 5 -3 9 1 9 9 0 17 -3 19 -12 6z"/>
<path d="M3343 2256 c-13 -6 -23 -14 -23 -19 0 -4 -9 -17 -20 -29 -23 -25 -25
-38 -6 -38 8 0 17 12 20 26 5 17 12 24 21 20 9 -3 15 0 15 8 0 8 7 16 15 20 8
3 15 10 15 16 0 12 -7 11 -37 -4z"/>
<path d="M2960 2250 c0 -5 -7 -10 -16 -10 -8 0 -12 -4 -9 -10 9 -15 19 -12 33
10 7 12 8 20 2 20 -5 0 -10 -4 -10 -10z"/>
<path d="M3100 2251 c0 -5 7 -12 16 -15 24 -9 28 -7 14 9 -14 17 -30 20 -30 6z"/>
<path d="M3390 2240 c0 -5 5 -10 10 -10 6 0 10 5 10 10 0 6 -4 10 -10 10 -5 0
-10 -4 -10 -10z"/>
<path d="M3452 2236 c7 -8 15 -12 17 -11 5 6 -10 25 -20 25 -5 0 -4 -6 3 -14z"/>
<path d="M3240 2233 c7 -3 7 -10 -2 -21 -11 -13 -11 -14 2 -10 18 6 20 30 2
34 -7 1 -8 0 -2 -3z"/>
<path d="M3367 2211 c-3 -14 0 -17 14 -14 22 6 25 19 5 26 -8 3 -16 -2 -19
-12z"/>
<path d="M3563 2217 c-4 -8 -15 -16 -23 -19 -9 -3 -4 -7 13 -10 15 -3 25 -3
22 0 -2 3 0 11 6 18 6 8 7 14 0 18 -5 4 -13 0 -18 -7z"/>
<path d="M3420 2216 c0 -2 8 -10 18 -17 15 -13 16 -12 3 4 -13 16 -21 21 -21
13z"/>
<path d="M3495 2200 c-10 -11 -13 -20 -7 -20 7 0 12 -7 12 -16 0 -14 3 -14 15
-4 11 9 12 15 5 20 -6 4 -8 14 -4 23 8 23 1 21 -21 -3z"/>
<path d="M2900 2200 c0 -5 5 -10 10 -10 6 0 10 5 10 10 0 6 -4 10 -10 10 -5 0
-10 -4 -10 -10z"/>
<path d="M3047 2204 c-12 -12 3 -22 24 -17 16 4 17 8 7 14 -16 10 -23 11 -31
3z"/>
<path d="M2950 2196 c0 -3 7 -12 17 -21 14 -14 14 -18 2 -26 -8 -5 -9 -9 -4
-9 6 0 17 4 25 10 12 7 10 12 -9 29 -24 21 -31 25 -31 17z"/>
<path d="M3150 2190 c-13 -8 -12 -10 3 -10 18 0 23 -15 7 -25 -5 -3 -1 -14 10
-25 11 -11 20 -27 20 -35 0 -8 8 -15 18 -15 16 -1 16 -1 0 -11 -27 -15 -22
-30 6 -19 18 6 28 5 36 -6 7 -7 17 -14 23 -14 6 0 -11 20 -36 45 -26 25 -44
45 -40 45 4 0 -2 7 -13 15 -10 9 -13 14 -5 13 7 -2 15 5 16 15 2 9 -3 17 -10
17 -7 0 -15 4 -17 10 -2 6 -8 6 -18 0z"/>
<path d="M2907 2175 c-18 -13 -18 -14 2 -34 22 -22 28 -37 11 -26 -6 3 -18 -1
-27 -11 -17 -16 -16 -17 12 -11 24 4 34 0 52 -21 12 -15 22 -21 23 -14 0 6 -4
12 -10 12 -5 0 -7 6 -4 14 3 7 -2 21 -11 30 -9 9 -13 21 -9 27 5 9 0 10 -15 6
-15 -3 -21 -1 -18 6 2 7 11 11 20 11 9 -1 13 4 10 12 -6 17 -13 17 -36 -1z"/>
<path d="M3335 2181 c8 -14 -5 -39 -23 -44 -10 -3 -5 -4 11 -4 15 1 27 5 27 8
0 4 3 14 6 22 3 8 -2 17 -11 21 -9 3 -14 2 -10 -3z"/>
<path d="M3410 2174 c0 -8 5 -12 10 -9 6 3 10 10 10 16 0 5 -4 9 -10 9 -5 0
-10 -7 -10 -16z"/>
<path d="M3103 2153 c3 -37 24 -40 25 -3 0 19 -4 30 -13 30 -9 0 -13 -10 -12
-27z"/>
<path d="M3525 2150 c-10 -11 -13 -20 -7 -20 7 0 12 5 12 10 0 6 5 10 10 10 6
0 10 -6 10 -14 0 -26 25 -37 41 -18 28 33 30 40 9 35 -11 -3 -20 -10 -20 -15
0 -6 -6 -5 -15 2 -8 7 -12 16 -9 21 10 17 -13 9 -31 -11z"/>
<path d="M3055 2140 c-3 -5 1 -10 9 -10 9 0 16 5 16 10 0 6 -4 10 -9 10 -6 0
-13 -4 -16 -10z"/>
<path d="M3202 2139 c2 -6 8 -10 13 -10 5 0 11 4 13 10 2 6 -4 11 -13 11 -9 0
-15 -5 -13 -11z"/>
<path d="M3026 2102 c-3 -9 -9 -23 -12 -29 -3 -8 1 -13 11 -13 12 0 15 5 11
16 -5 13 -2 15 13 11 12 -3 26 2 33 12 12 14 11 15 -4 2 -10 -7 -18 -9 -18 -3
0 18 -28 21 -34 4z"/>
<path d="M3150 2096 c0 -2 7 -9 15 -16 13 -11 14 -10 9 4 -5 14 -24 23 -24 12z"/>
<path d="M3240 2090 c0 -5 9 -10 20 -10 11 0 20 5 20 10 0 6 -9 10 -20 10 -11
0 -20 -4 -20 -10z"/>
<path d="M3120 2086 c0 -2 7 -9 15 -16 9 -7 15 -8 15 -2 0 5 -7 12 -15 16 -8
3 -15 4 -15 2z"/>
<path d="M2820 2070 c-8 -5 -11 -13 -6 -17 5 -4 11 -2 13 5 3 6 9 10 14 6 5
-3 9 0 9 5 0 13 -10 14 -30 1z"/>
<path d="M3068 2058 c-22 -34 -28 -57 -18 -63 4 -3 10 1 13 7 3 10 7 10 21 -1
20 -17 23 -15 29 27 6 34 -1 40 -22 20 -11 -11 -12 -9 -6 10 3 12 4 22 2 22
-3 0 -11 -10 -19 -22z"/>
<path d="M2847 2048 c-10 -11 -17 -22 -14 -24 2 -2 12 5 22 16 23 26 16 33 -8
8z"/>
<path d="M2930 2056 c0 -9 5 -16 10 -16 6 0 10 4 10 9 0 6 -4 13 -10 16 -5 3
-10 -1 -10 -9z"/>
<path d="M3131 2037 c-6 -8 -8 -17 -4 -20 12 -13 22 -7 20 13 -2 24 -1 24 -16
7z"/>
<path d="M2937 2033 c-9 -2 -15 -9 -12 -14 9 -14 32 -11 39 6 6 15 4 16 -27 8z"/>
<path d="M2780 2020 c-8 -5 -12 -12 -9 -15 4 -3 12 1 19 10 14 17 11 19 -10 5z"/>
<path d="M2860 2019 c0 -5 5 -7 10 -4 6 3 10 8 10 11 0 2 -4 4 -10 4 -5 0 -10
-5 -10 -11z"/>
<path d="M2958 1999 c-16 -11 -28 -25 -28 -30 0 -17 15 -8 38 22 28 34 26 35
-10 8z"/>
<path d="M2872 1992 c-20 -13 -25 -14 -34 -1 -8 11 -9 10 -4 -4 3 -10 6 -30 6
-43 0 -13 5 -24 11 -24 6 0 8 8 4 19 -4 13 2 25 21 40 32 25 29 35 -4 13z"/>
<path d="M3155 1982 c-14 -10 -18 -42 -5 -42 6 0 15 10 20 23 7 17 9 18 9 5 1
-20 16 -24 26 -7 8 12 6 15 -20 23 -11 3 -24 2 -30 -2z"/>
<path d="M2965 1969 c-4 -6 -5 -13 -2 -16 7 -7 27 6 27 18 0 12 -17 12 -25 -2z"/>
<path d="M2845 1900 c-3 -5 -1 -10 4 -10 6 0 11 5 11 10 0 6 -2 10 -4 10 -3 0
-8 -4 -11 -10z"/>
<path d="M2787 1873 c-10 -9 -9 -23 2 -23 5 0 11 7 15 15 5 15 -5 20 -17 8z"/>
</g>
</svg>
